# xmcd CD database file
#
# Track frame offsets:
#	150
#	9405
#	22064
#	37102
#	51287
#	63171
#	74853
#	87541
#	98468
#	112099
#	121225
#	133386
#	143017
#	155750
#
# Disc length: 2203 seconds
#
# Revision: 0
# Processed by: cddbd v1.5.1PL2 Copyright (c) Steve Scherf et al.
# Submitted via: CDex 1.51
#
DISCID=cf08990e
DTITLE=Frankie Laine - Wanted
DYEAR=2003
DGENRE=Country
TTITLE0=Rawhide
TTITLE1=High Noon
TTITLE2=Jezebel
TTITLE3=Don't Fence Me In
TTITLE4=Jambalaya
TTITLE5=Mule Train
TTITLE6=Moonlight Gambler
TTITLE7=Hummingbird
TTITLE8=Riders In The Sky
TTITLE9=Your Cheatin' Heart
TTITLE10=Cry Of The Wild Goose
TTITLE11=Blazing Saddles
TTITLE12=That Lucky Old Sun
TTITLE13=Gunfight At The O.K. Corral
EXTD=YEAR: 2003
EXTT0=
EXTT1=
EXTT2=
EXTT3=
EXTT4=
EXTT5=
EXTT6=
EXTT7=
EXTT8=
EXTT9=
EXTT10=
EXTT11=
EXTT12=
EXTT13=
PLAYORDER=
